<svg height="512pt" viewBox="0 -128 512 512" width="512pt" xmlns="http://www.w3.org/2000/svg"><path d="m400.160156 87.839844h48v136.160156h-48zm0 0" fill="#ed5565"/><g fill="#ffce54"><path d="m224.078125 200h152.082031v24h-152.082031zm0 0"/><path d="m224.078125 176h152.082031v24h-152.082031zm0 0"/><path d="m224.078125 152h152.082031v24h-152.082031zm0 0"/><path d="m224.078125 128h152.082031v24h-152.082031zm0 0"/></g><path d="m136 95.839844h64v128.160156h-64zm0 0" fill="#5d9cec"/><path d="m64 71.761719h48v152.238281h-48zm0 0" fill="#a0d468"/><path d="m400.160156 87.839844v136.160156h-24v-96h-152.082031v96h-24.078125v-128.160156h-64v128.160156h-24v-152.238281h-48v152.238281h-8c-13.28125 0-24-10.800781-24-24v-144c0-13.28125 10.71875-24 24-24h400c13.199219 0 24 10.71875 24 24v144c0 13.199219-10.800781 24-24 24h-7.839844v-136.160156zm0 0" fill="#844747"/><path d="m456 32h-400c-13.28125 0-24 10.71875-24 24v144c0 13.199219 10.71875 24 24 24h400c13.199219 0 24-10.800781 24-24v-144c0-13.28125-10.800781-24-24-24zm0 216h-400c-26.398438 0-48-21.601562-48-48v-144c0-26.398438 21.601562-48 48-48h400c26.398438 0 48 21.601562 48 48v144c0 26.398438-21.601562 48-48 48zm0 0" fill="#965353"/><path d="m456 256h-400c-30.871094 0-56-25.128906-56-56v-144c0-30.871094 25.128906-56 56-56h400c30.871094 0 56 25.128906 56 56v144c0 30.871094-25.128906 56-56 56zm-400-240c-22.054688 0-40 17.945312-40 40v144c0 22.054688 17.945312 40 40 40h400c22.054688 0 40-17.945312 40-40v-144c0-22.054688-17.945312-40-40-40zm0 0"/><path d="m456 232h-400c-17.648438 0-32-14.351562-32-32v-144c0-17.648438 14.351562-32 32-32h400c17.648438 0 32 14.351562 32 32v144c0 17.648438-14.351562 32-32 32zm-400-192c-8.824219 0-16 7.175781-16 16v144c0 8.824219 7.175781 16 16 16h400c8.824219 0 16-7.175781 16-16v-144c0-8.824219-7.175781-16-16-16zm0 0"/><path d="m64.007812 232c-4.421874 0-8-3.574219-8-8v-152.175781c0-4.425781 3.578126-8 8-8 4.425782 0 8 3.574219 8 8v152.175781c0 4.425781-3.574218 8-8 8zm0 0"/><path d="m112.015625 79.824219h-48.007813c-4.421874 0-8-3.578125-8-8 0-4.425781 3.578126-8 8-8h48.007813c4.425781 0 8 3.574219 8 8 0 4.421875-3.574219 8-8 8zm0 0"/><path d="m112.015625 232c-4.421875 0-8-3.574219-8-8v-152.175781c0-4.425781 3.578125-8 8-8 4.425781 0 8 3.574219 8 8v152.175781c0 4.425781-3.574219 8-8 8zm0 0"/><path d="m135.992188 232c-4.425782 0-8-3.574219-8-8v-128.160156c0-4.425782 3.574218-8 8-8 4.421874 0 8 3.574218 8 8v128.160156c0 4.425781-3.578126 8-8 8zm0 0"/><path d="m200.015625 103.839844h-64.023437c-4.425782 0-8-3.574219-8-8 0-4.425782 3.574218-8 8-8h64.023437c4.425781 0 8 3.574218 8 8 0 4.425781-3.574219 8-8 8zm0 0"/><path d="m200.015625 232c-4.421875 0-8-3.574219-8-8v-128.160156c0-4.425782 3.578125-8 8-8 4.425781 0 8 3.574218 8 8v128.160156c0 4.425781-3.574219 8-8 8zm0 0"/><path d="m400.160156 232c-4.425781 0-8-3.574219-8-8v-136.167969c0-4.425781 3.574219-8 8-8 4.425782 0 8 3.574219 8 8v136.167969c0 4.425781-3.585937 8-8 8zm0 0"/><path d="m448.167969 95.832031h-48.007813c-4.425781 0-8-3.574219-8-8s3.574219-8 8-8h48.007813c4.425781 0 8 3.574219 8 8s-3.582031 8-8 8zm0 0"/><path d="m448.167969 232c-4.425781 0-8-3.574219-8-8v-136.167969c0-4.425781 3.574219-8 8-8s8 3.574219 8 8v136.167969c0 4.425781-3.582031 8-8 8zm0 0"/><path d="m224.089844 232c-4.425782 0-8-3.574219-8-8v-96.070312c0-4.425782 3.574218-8 8-8 4.421875 0 8 3.574218 8 8v96.070312c0 4.425781-3.585938 8-8 8zm0 0"/><path d="m376.152344 208h-152.0625c-4.425782 0-8-3.574219-8-8s3.574218-8 8-8h152.0625c4.421875 0 8 3.574219 8 8s-3.585938 8-8 8zm0 0"/><path d="m376.152344 184h-152.0625c-4.425782 0-8-3.574219-8-8s3.574218-8 8-8h152.0625c4.421875 0 8 3.574219 8 8s-3.585938 8-8 8zm0 0"/><path d="m376.152344 160h-152.0625c-4.425782 0-8-3.574219-8-8s3.574218-8 8-8h152.0625c4.421875 0 8 3.574219 8 8s-3.585938 8-8 8zm0 0"/><path d="m376.152344 136h-152.0625c-4.425782 0-8-3.574219-8-8s3.574218-8 8-8h152.0625c4.421875 0 8 3.574219 8 8s-3.585938 8-8 8zm0 0"/><path d="m376.152344 232c-4.425782 0-8-3.574219-8-8v-96.070312c0-4.425782 3.574218-8 8-8 4.421875 0 8 3.574218 8 8v96.070312c0 4.425781-3.585938 8-8 8zm0 0"/><path d="m88 199.976562c-4.425781 0-8-3.578124-8-8v-87.984374c0-4.425782 3.574219-8 8-8s8 3.574218 8 8v87.984374c0 4.421876-3.574219 8-8 8zm0 0"/><path d="m168 200c-4.425781 0-8-3.574219-8-8v-64.023438c0-4.425781 3.574219-8 8-8s8 3.574219 8 8v64.023438c0 4.425781-3.574219 8-8 8zm0 0"/><path d="m424.167969 200c-4.425781 0-8-3.574219-8-8v-72.03125c0-4.425781 3.574219-8 8-8s8 3.574219 8 8v72.03125c0 4.425781-3.574219 8-8 8zm0 0"/></svg>