<svg xmlns="http://www.w3.org/2000/svg" xmlns:xlink="http://www.w3.org/1999/xlink" version="1.1" style="" xml:space="preserve" width="828.5000013783574" height="506.0000002980232"><rect id="backgroundrect" width="100%" height="100%" x="0" y="0" fill="none" stroke="none" class="" style=""/>
<g class="currentLayer" style=""><title>Layer 1</title><path style="fill:#FFF0C0;" d="M806.114,254.233 c0,82.579 -31.551,149.729 -103.183,187.292 c-40.809,21.4 -86.507,51.945 -136.054,51.945 c-82.339,0 -151.567,-32.514 -186.51,-104.926 C360.246,346.847 327.64,304.02 327.64,254.233 c0,-56.787 28.374,-112.924 65.831,-149.975 c48.346000000000004,-47.822 98.066,-89.263 173.406,-89.263 c59.444,0 108.884,28.413 155.666,57.565 C780.46,108.65199999999999 806.114,181.55 806.114,254.233 z" id="svg_1" class=""/><path style="opacity:0.2;fill:#C97B00;enable-background:new    ;" d="M566.876,493.47 c49.548,0 95.245,-30.545 136.054,-51.945 c3.214,-1.685 6.343,-3.432 9.396,-5.236 c-242.838,75.031 -298.8,-291.63 -230.29,-401.121 c-32.967,16.619 -60.991,41.814 -88.566,69.089 c-37.457,37.051 -65.831,93.188 -65.831,149.975 c0,49.788 32.606,92.615 52.728,134.311 C415.30899999999997,460.956 484.53700000000003,493.47 566.876,493.47 z" id="svg_2" class=""/><g id="svg_3" class="">
	<path style="fill:#DDAF89;" d="M695.2149999999999,204.301 c-3.888,0 -7.176,-2.999 -7.471,-6.939 c-1.803,-24.018 9.268,-52.776 30.373,-78.904 c20.401,-25.255 45.28,-41.8 66.551,-44.258 c4.12,-0.4770000000000002 7.836,2.474 8.311,6.589 c0.4760000000000002,4.115 -2.475,7.836 -6.589,8.312 c-17.196,1.987 -38.886,16.848 -56.604,38.783 c-18.457,22.849 -28.582,48.402 -27.085,68.355 c0.3110000000000002,4.131 -2.787,7.73 -6.917,8.04 C695.592,204.29399999999998 695.403,204.301 695.2149999999999,204.301 z" id="svg_4"/>
	<path style="fill:#DDAF89;" d="M721.3389999999999,133.993 c-3.36,0.0010000000000000009 -6.376,-2.269 -7.246,-5.597 c-2.074,-4.339 -19.486,-22.486 -38.667,-28.484 c-3.9530000000000003,-1.236 -6.156,-5.443 -4.92,-9.396 c1.236,-3.952 5.441,-6.155 9.397,-4.92 c22.554,7.053 46.898,29.756 48.804,39.45 c0.799,4.064 -1.8490000000000002,8.007 -5.913,8.806000000000001 C722.304,133.947 721.818,133.993 721.3389999999999,133.993 zM714.153,128.52999999999997 h0.010000000000000007 H714.153 zM713.9870000000001,127.93899999999996 c0.0010000000000000009,0.0020000000000000018 0.0010000000000000009,0.0040000000000000036 0.0010000000000000009,0.006000000000000008 C713.988,127.94200000000001 713.988,127.94100000000003 713.9870000000001,127.93899999999996 z" id="svg_5"/>
</g><g id="svg_6" class="">
	<path style="fill:#A28577;" d="M513.734,323.401 c-1.956,0 -3.91,-0.7610000000000005 -5.381,-2.274 c-11.234,-11.566 -29.453,-55.847 -17.389,-85.457 c4.753,-11.668 6.631,-34.246 4.784,-57.52 c-1.903,-23.979 -7.38,-43.646 -14.292,-51.327 c-2.771,-3.079 -2.521,-7.821 0.557,-10.592 s7.82,-2.523 10.592,0.557 c13.186,14.65 17.048,46.963 18.097,60.176 c2.049,25.82 -0.19100000000000014,50.484 -5.847,64.366 c-9.354,22.959 6.792,61.659 14.258,69.346 c2.886,2.972 2.816,7.72 -0.1540000000000001,10.605 C517.502,322.697 515.617,323.401 513.734,323.401 z" id="svg_7"/>
	<path style="fill:#A28577;" d="M497.90599999999995,246.002 c-3.291,0 -6.3100000000000005,-2.183 -7.227,-5.509 c-9.678,-35.11 -33.404,-45.322 -49.104,-52.079 c-3.3280000000000003,-1.433 -6.203,-2.67 -8.618,-4.012 c-3.621,-2.011 -4.925,-6.577 -2.9130000000000003,-10.198 c2.011,-3.62 6.574,-4.928 10.198,-2.9130000000000003 c1.754,0.974 4.307,2.073 7.263,3.345 c16.092,6.926 46.044,19.816 57.636,61.871 c1.101,3.993 -1.244,8.123 -5.237,9.224 C499.236,245.914 498.56500000000005,246.002 497.90599999999995,246.002 z" id="svg_8"/>
	<path style="fill:#A28577;" d="M562.205,156.84000000000003 c-0.04400000000000004,0 -0.08800000000000008,0 -0.133,0 c-4.142,-0.008000000000000007 -7.493,-3.372 -7.485,-7.515 c0.008000000000000007,-4.1370000000000005 3.364,-7.485 7.5,-7.485 c0.03600000000000001,-0.003000000000000004 0.07800000000000006,0 0.11600000000000008,0 c15.823,0 29.195,-7.179 43.354,-14.778 c13.985,-7.508 28.446,-15.271 45.812,-16.093 c4.188,-0.2 7.65,3 7.847,7.136 c0.19600000000000015,4.138 -2.999,7.651 -7.136,7.847 c-13.974,0.6620000000000007 -26.338,7.3 -39.429,14.326 C597.481,148.41999999999996 581.796,156.84000000000003 562.205,156.84000000000003 z" id="svg_9"/>
	<path style="fill:#A28577;" d="M616.991,136.35500000000002 c-13.735,0 -26.724,-5.953 -37.652,-17.28 c-17.116,-17.74 -25.317,-44.063 -24.734,-52.614 c0.281,-4.132 3.872,-7.24 7.993,-6.9719999999999995 c4.128,0.281 7.247,3.853 6.973,7.981 c-0.1450000000000001,3.9210000000000003 6.287,26.828 21.147,41.787 c8.279,8.335 17.475,12.399000000000001 27.332,12.081 c4.1,-0.11800000000000008 7.605,3.113 7.738,7.254 c0.134,4.14 -3.114,7.605 -7.254,7.738 C618.019,136.346 617.505,136.35500000000002 616.991,136.35500000000002 z" id="svg_10"/>
	<path style="fill:#A28577;" d="M426.16499999999996,148.096 c-1.295,0 -2.606,-0.33500000000000035 -3.802,-1.04 c-24.353,-14.357 -75.479,-12.451 -93.102,-0.2880000000000002 c-3.407,2.354 -8.079,1.497 -10.433,-1.913 c-2.352,-3.409 -1.496,-8.08 1.913,-10.433 c22.07,-15.231 79.01,-18.108 109.238,-0.2880000000000002 c3.568,2.104 4.756,6.7010000000000005 2.652,10.27 C431.23400000000004,146.776 428.73199999999997,148.096 426.16499999999996,148.096 z" id="svg_11"/>
</g><g id="svg_12" class="">
	<path style="fill:#DDAF89;" d="M513.737,100.25599999999997 c-0.6760000000000007,0 -1.362,-0.09200000000000011 -2.045,-0.2850000000000002 c-3.9859999999999998,-1.1280000000000001 -6.304,-5.272 -5.176,-9.258 c2.585,-9.138 0.6890000000000007,-17.746 -5.795,-26.318 c-14.269,-18.865 -45.22,-29.665 -51.426,-29.665 c-4.142,0 -7.5,-3.357 -7.5,-7.5 s3.357,-7.5 7.5,-7.5 c10.578,0 45.891,12.48 63.389,35.616 c9.249,12.228 12.107,25.869 8.266,39.449 C520.015,98.09899999999999 517.008,100.25599999999997 513.737,100.25599999999997 z" id="svg_13"/>
	<path style="fill:#DDAF89;" d="M513.227,79.33699999999999 c-0.8950000000000006,0 -1.807,-0.16100000000000014 -2.692,-0.503 c-3.866,-1.488 -5.793,-5.828 -4.305,-9.693 c1.033,-2.685 3.332,-5.469 8.895,-12.065 c9.151,-10.851 30.582,-36.263 25.266,-47.794 c-1.734,-3.762 -0.09200000000000011,-8.217 3.67,-9.951 c3.765,-1.733 8.218,-0.0900000000000001 9.951,3.67 c9.311,20.192 -13.682,47.456 -27.42,63.746 c-2.564,3.041 -5.743,6.811 -6.471,8.049 C518.9110000000001,77.61700000000002 516.149,79.33699999999999 513.227,79.33699999999999 zM520.2280000000001,74.529 c-0.020000000000000014,0.05100000000000004 -0.03900000000000003,0.10200000000000002 -0.06000000000000004,0.1520000000000001 C520.191,74.62799999999999 520.211,74.576 520.2280000000001,74.529 z" id="svg_14"/>
</g><path style="fill:#A28577;" d="M623.307,77.25 c-2.016,0 -4.024,-0.808 -5.503,-2.401 c-2.815,-3.038 -2.6350000000000002,-7.784 0.402,-10.6 l1.883,-1.7480000000000002 c18.5,-17.199 46.453,-43.193 80.873,-30.553 c3.8890000000000002,1.428 5.883,5.737 4.455,9.625 c-1.427,3.888 -5.739,5.883 -9.625,4.455 c-25.774,-9.465 -47.796,11.009 -65.489,27.458 l-1.9,1.7650000000000001 C626.961,76.589 625.1320000000001,77.25 623.307,77.25 z" id="svg_15" class=""/><g id="svg_16" class="">
	<path style="fill:#DDAF89;" d="M325.007,339.235 c-0.09100000000000011,0 -0.1830000000000001,-0.0020000000000000018 -0.274,-0.005000000000000004 c-4.14,-0.1490000000000001 -7.375,-3.625 -7.226,-7.7650000000000015 c2.98,-82.834 36.439,-103.152 71.863,-124.663 c2.702,-1.641 5.432,-3.299 8.178,-5.002 c3.521,-2.183 8.144,-1.1 10.327,2.419 c2.184,3.521 1.101,8.144 -2.419,10.327 c-2.7880000000000003,1.73 -5.558,3.411 -8.3,5.077 c-34.622,21.025 -61.97,37.631 -64.659,112.381 C332.351,336.053 329.024,339.235 325.007,339.235 z" id="svg_17"/>
	<path style="fill:#DDAF89;" d="M389.36199999999997,323.047 c-4.143,0 -7.5,-3.357 -7.5,-7.5 c0,-17.323 -22.546,-40.278 -33.381,-51.31 c-2.311,-2.354 -4.138,-4.212 -5.469,-5.706 c-1.4460000000000002,-1.62 -5.845,-6.553 -2.168,-11.811 c2.372,-3.395 7.051,-4.223 10.443,-1.85 c1.266,0.8850000000000005 2.175,2.09 2.694,3.4290000000000003 c1.028,1.18 3.224,3.415 5.2,5.428 c13.168,13.407 37.68,38.364 37.68,61.821 C396.86199999999997,319.69 393.505,323.047 389.36199999999997,323.047 zM353.144,255.30399999999997 c-0.0020000000000000018,0.003000000000000004 -0.0040000000000000036,0.006000000000000008 -0.007000000000000008,0.009000000000000011 C353.14,255.31 353.142,255.30700000000002 353.144,255.30399999999997 zM353.15,255.29500000000002 c-0.0010000000000000009,0.0020000000000000018 -0.0020000000000000018,0.003000000000000004 -0.003000000000000004,0.005000000000000004 C353.148,255.298 353.149,255.29700000000003 353.15,255.29500000000002 zM353.156,255.286 c-0.0010000000000000009,0.0010000000000000009 -0.0010000000000000009,0.003000000000000004 -0.0020000000000000018,0.0040000000000000036 C353.155,255.289 353.155,255.28699999999998 353.156,255.286 z" id="svg_18"/>
</g><g id="svg_19" class="">
	<path style="fill:#A28577;" d="M381.443,449.241 c-2.657,0 -5.232,-1.415 -6.594,-3.912 c-7.461,-13.678 0.3070000000000002,-61.524 21.088,-84.517 c2.778,-3.072 7.521,-3.311 10.594,-0.535 c3.072,2.778 3.313,7.521 0.535,10.594 c-7.589,8.396 -13.968,22.491 -17.501,38.672 c-3.431,15.709 -2.6990000000000007,26.384 -1.545,28.608 c1.983,3.637 0.6420000000000005,8.189 -2.9939999999999998,10.173 C383.88599999999997,448.946 382.65599999999995,449.241 381.443,449.241 z" id="svg_20"/>
	<path style="fill:#A28577;" d="M530.952,406.381 c-1.075,0 -2.167,-0.232 -3.203,-0.7230000000000004 c-21.908,-10.369 -33.84,-24.806 -44.367,-37.544 c-14.275,-17.273 -25.552,-30.918 -57.737,-33.186 c-4.132,-0.2910000000000002 -7.245,-3.8770000000000002 -6.954,-8.009 s3.879,-7.245 8.009,-6.954 c38.598,2.72 53.67,20.957 68.245,38.593 c9.996,12.095 20.331,24.602 39.221,33.541 c3.744,1.772 5.343,6.244 3.571,9.987 C536.455,404.7950000000001 533.76,406.381 530.952,406.381 z" id="svg_21"/>
	<path style="fill:#A28577;" d="M561.206,373.342 c-2.153,0 -4.29,-0.922 -5.773,-2.708 c-8.782,-10.575 -28.819,-5.324 -44.92,-1.106 c-7.367,1.931 -13.73,3.598 -18.972,3.809 c-4.146,0.1880000000000001 -7.6290000000000004,-3.055 -7.795,-7.193 c-0.16600000000000015,-4.139 3.055,-7.6290000000000004 7.193,-7.795 c3.615,-0.1450000000000001 9.52,-1.6920000000000006 15.771,-3.33 c19.15,-5.019 45.377,-11.889 60.261,6.032 c2.646,3.187 2.209,7.915 -0.978,10.562 C564.593,372.774 562.894,373.342 561.206,373.342 z" id="svg_22"/>
</g><g id="svg_23" class="">
	<path style="fill:#DDAF89;" d="M467.24800000000005,505.8620000000001 c-1.268,0 -2.551,-0.3210000000000003 -3.729,-0.997 c-3.592,-2.063 -4.831,-6.647 -2.769,-10.239 c12.709,-22.128 13.781,-45.601 3.189,-69.767 c-8.64,-19.71 -22.269,-32.889 -24.594,-34.667 c-3.29,-2.517 -3.918,-7.224 -1.4020000000000001,-10.514 s7.223,-3.917 10.514,-1.4020000000000001 c5.615,4.2940000000000005 20.146,19.858 29.221,40.562 c12.431000000000001,28.359 11.075,57.149 -3.92,83.259 C472.37200000000007,504.51099999999997 469.845,505.8620000000001 467.24800000000005,505.8620000000001 z" id="svg_24"/>
	<path style="fill:#DDAF89;" d="M480.97299999999996,453.75199999999995 c-2.107,0 -4.04,-0.2880000000000002 -5.846,-0.9690000000000004 c-3.8760000000000003,-1.463 -5.832,-5.79 -4.37,-9.665000000000001 c1.449,-3.84 5.711,-5.791 9.556000000000001,-4.41 c1.923,0.3690000000000002 8.319,-1.183 13.006,-2.318 c12.432,-3.012 29.459,-7.138 45.029,-1.737 c3.914,1.357 5.986,5.63 4.6290000000000004,9.543 c-1.357,3.914 -5.626,5.986 -9.543,4.6290000000000004 c-11.409,-3.956 -25.366,-0.5730000000000004 -36.582,2.144 C490.514,452.504 485.36400000000003,453.75199999999995 480.97299999999996,453.75199999999995 zM480.42100000000005,438.74700000000007 c0,0.0010000000000000009 0.0010000000000000009,0.0010000000000000009 0.0020000000000000018,0.0010000000000000009 C480.422,438.74800000000005 480.42100000000005,438.74800000000005 480.42100000000005,438.74700000000007 z" id="svg_25"/>
</g><g id="svg_26" class="">
	<path style="fill:#A28577;" d="M575.3240000000001,442.66599999999994 c-2.484,0 -4.915,-1.233 -6.343,-3.488 c-2.217,-3.499 -1.177,-8.133 2.323,-10.349 c8.864,-5.615 20.829,-7.364 34.682,-9.39 c15.581,-2.278 34.971,-5.114 55.649,-14.435 c3.774,-1.6990000000000007 8.217,-0.021000000000000015 9.92,3.7560000000000002 c1.702,3.776 0.021000000000000015,8.218 -3.7560000000000002,9.92 c-22.594,10.183 -43.137,13.187 -59.643,15.601 c-12.66,1.852 -22.659,3.314 -28.827,7.22 C578.086,442.28999999999996 576.696,442.66599999999994 575.3240000000001,442.66599999999994 z" id="svg_27"/>
	<path style="fill:#A28577;" d="M699.076,459.1890000000001 c-12.062,0 -26.85,-4.337 -44.139,-12.963000000000001 c-16.096,-8.031 -28.455,-16.858 -28.973,-17.23 c-3.366,-2.415 -4.1370000000000005,-7.1 -1.722,-10.466 c2.415,-3.367 7.103,-4.136 10.466,-1.722 c12.807,9.176 50.501,31.847 70.913,26.638 c4.01,-1.021 8.098,1.4 9.12,5.415 c1.023,4.014 -1.401,8.097 -5.415,9.12 C706.168,458.78600000000006 702.7470000000001,459.1890000000001 699.076,459.1890000000001 z" id="svg_28"/>
</g><g id="svg_29" class="">
	<path style="fill:#DDAF89;" d="M620.01,384.193 c-1.433,0 -2.88,-0.4090000000000002 -4.159,-1.2650000000000001 c-3.444,-2.301 -4.371,-6.959 -2.07,-10.402 c22.631,-33.873 73.056,-43.186 119.397,-47.827 c4.112,-0.4150000000000002 7.796,2.5940000000000003 8.21,6.716 c0.4120000000000002,4.121 -2.5940000000000003,7.797 -6.716,8.21 c-42.857,4.293 -89.253,12.549 -108.418,41.233 C624.807,383.023 622.431,384.193 620.01,384.193 z" id="svg_30"/>
	<path style="fill:#DDAF89;" d="M746.1220000000001,396.476 c-7.239,0 -14.34,-1.12 -21.333,-3.354 c-24.104,-7.696 -42.53,-27.358 -57.376,-45.577 c-2.616,-3.211 -2.134,-7.9350000000000005 1.077,-10.552 c3.212,-2.617 7.9350000000000005,-2.134 10.552,1.077 c13.452,16.509 29.948,34.262 50.31,40.763 c20.926,6.682 43.83,0.462 70.026,-19.011 c3.324,-2.471 8.021,-1.779 10.494,1.545 c2.471,3.324 1.779,8.022 -1.545,10.494 C786.182,388.322 765.65,396.476 746.1220000000001,396.476 z" id="svg_31"/>
</g><g id="svg_32" class="">
	<path style="fill:#A28577;" d="M767.38,289.858 c-0.5630000000000004,0 -1.133,-0.06300000000000006 -1.7040000000000002,-0.19600000000000015 c-4.034,-0.9380000000000004 -6.546,-4.968 -5.6080000000000005,-9.003 c3.901,-16.794 14.312,-30.659 24.378,-44.067 c11.664,-15.535 22.681,-30.209 20.491,-46.48 c-0.553,-4.104 2.327,-7.881 6.433,-8.433 c4.1,-0.556 7.88,2.327 8.433,6.433 c3.01,22.362 -10.396,40.218 -23.36,57.486 c-9.133,12.165 -18.577,24.744 -21.763,38.456 C773.874,287.518 770.789,289.858 767.38,289.858 z" id="svg_33"/>
	<path style="fill:#A28577;" d="M783.331,258.232 c-3.669,0 -6.777,-2.66 -7.3870000000000005,-6.229 c-0.8780000000000004,-1.79 -4.609,-6.461 -7.634,-10.246 c-13.727,-17.181 -36.702,-45.936 -26.46,-73.003 c1.465,-3.875 5.795,-5.829 9.669,-4.36 c3.874,1.466 5.8260000000000005,5.795 4.36,9.669 c-7.217,19.073 12.418,43.648 24.149,58.331 c7.028,8.797 10.557,13.213 10.798,17.958 c0.2110000000000001,4.1370000000000005 -2.973,7.66 -7.109,7.871 C783.588,258.229 783.4590000000001,258.232 783.331,258.232 zM775.846,251.11199999999997 c0,0.003000000000000004 0,0.006000000000000008 0,0.008000000000000007 C775.846,251.118 775.846,251.115 775.846,251.11199999999997 z" id="svg_34"/>
	<path style="fill:#A28577;" d="M770.319,336.699 c-1.3980000000000001,0 -2.811,-0.3900000000000003 -4.071,-1.205 c-3.477,-2.25 -4.469,-6.9 -2.219,-10.378 c6.476,-10.01 46.979,-35.293 54.163,-39.529 c3.568,-2.103 8.166,-0.916 10.271,2.6510000000000002 c2.104,3.568 0.917,8.166 -2.6510000000000002,10.271 c-21.116,12.451 -46.424,30.725 -49.197,34.769 C775.1800000000001,335.494 772.775,336.699 770.319,336.699 z" id="svg_35"/>
</g><path style="fill:#DDAF89;" d="M445.50800000000004,105.41300000000001 c-0.3670000000000002,0 -0.7370000000000004,-0.026000000000000027 -1.111,-0.08200000000000007 c-6.696,-0.994 -15.698,-5.248 -22.934,-10.837 c-9.922,-7.664 -15.689,-16.923000000000002 -16.676000000000002,-26.775 c-0.4130000000000002,-4.122 2.5940000000000003,-7.798 6.715,-8.211 c4.123,-0.4100000000000002 7.798,2.593 8.211,6.715 c1.283,12.809 19.304,23.146 26.887,24.271 c4.097,0.6080000000000004 6.926,4.423 6.317,8.521 C452.36400000000003,102.73699999999997 449.16200000000003,105.41300000000001 445.50800000000004,105.41300000000001 z" id="svg_36" class=""/><path style="fill:#A28577;" d="M419.068,281.994 c-0.928,0 -1.87,-0.17300000000000001 -2.784,-0.539 c-3.846,-1.538 -5.716,-5.9030000000000005 -4.177,-9.749 c2.777,-6.942 20.958,-24.781 31.229,-27.872 c3.964,-1.193 8.148,1.054 9.343,5.02 c1.193,3.967 -1.054,8.149000000000001 -5.02,9.343 c-5.351,1.61 -19.559,15.103 -21.667,19.184 C424.79499999999996,280.252 422.00800000000004,281.994 419.068,281.994 zM426.033,277.278 c-0.006000000000000008,0.016000000000000014 -0.012000000000000007,0.030000000000000027 -0.019000000000000013,0.04600000000000005 C426.02099999999996,277.309 426.02700000000004,277.293 426.033,277.278 z" id="svg_37" class=""/><g id="svg_38" class="">
	<path style="fill:#DDAF89;" d="M373.591,189.93200000000002 c-1.97,0 -3.9370000000000003,-0.771 -5.409,-2.3040000000000003 c-2.87,-2.987 -2.774,-7.735 0.2120000000000001,-10.604 c8.407,-8.077 22.51,-10.699 31.508,-9.068 c4.076,0.7390000000000004 6.781,4.643 6.042,8.718 c-0.7390000000000004,4.076 -4.65,6.775 -8.718,6.042 c-5.213,-0.9450000000000004 -14.069,0.928 -18.439,5.125 C377.33299999999997,189.23699999999997 375.461,189.93200000000002 373.591,189.93200000000002 z" id="svg_39"/>
	<path style="fill:#DDAF89;" d="M594.74,330.947 c-1.766,0 -3.5380000000000003,-0.6200000000000004 -4.965,-1.8810000000000002 c-17.699,-15.65 -23.274,-32.207 -27.753,-45.51 c-4.682,-13.902 -8.064,-23.947 -22.589,-30.923000000000002 c-3.733,-1.7930000000000001 -5.307,-6.273 -3.5140000000000002,-10.008 c1.7930000000000001,-3.733 6.273,-5.307 10.008,-3.5140000000000002 c20.229,9.714 25.354,24.937 30.31,39.658 c4.314,12.813 8.774000000000001,26.063 23.473,39.058 c3.103,2.744 3.395,7.484 0.6510000000000006,10.587 C598.88,330.092 596.8140000000001,330.947 594.74,330.947 z" id="svg_40"/>
	<path style="fill:#DDAF89;" d="M582.024,289.591 c-7.04,0 -12.982,-1.017 -16.806,-3.029 c-3.665,-1.929 -5.073,-6.465 -3.144,-10.13 c1.929,-3.664 6.464,-5.073 10.13,-3.144 c2.386,1.256 12.591,2.372 26.435,-0.5950000000000004 c4.047,-0.8670000000000004 8.036,1.7120000000000002 8.905,5.763 c0.8670000000000004,4.051 -1.713,8.037 -5.763,8.905 C594.821,288.853 588.023,289.591 582.024,289.591 z" id="svg_41"/>
	<path style="fill:#DDAF89;" d="M728.729,268.424 c-0.3540000000000002,0 -0.7110000000000004,-0.02500000000000002 -1.07,-0.07600000000000005 c-4.101,-0.5860000000000004 -6.95,-4.385 -6.364,-8.485 c0.8790000000000004,-6.152 -7.598,-12.724 -10.259,-13.973 c-3.427,-0.5950000000000004 -6.084,-3.525 -6.205,-7.139 c-0.138,-4.141 3.105,-7.6080000000000005 7.245,-7.747 c0.07900000000000006,-0.0020000000000000018 0.1580000000000001,-0.0040000000000000036 0.23700000000000004,-0.0040000000000000036 c5.393,0 12.738,5.999 16.411,10.094 c5.871,6.546 8.438,13.77 7.42,20.89 C735.6089999999999,265.725 732.4010000000001,268.424 728.729,268.424 zM712.578,245.99599999999998 c-0.003000000000000004,0 -0.005000000000000004,0 -0.007000000000000008,0 C712.573,245.99599999999998 712.575,245.99599999999998 712.578,245.99599999999998 zM710.755,245.76999999999998 L710.755,245.76999999999998 L710.755,245.76999999999998 z" id="svg_42"/>
	<path style="fill:#DDAF89;" d="M613.23,300.546 c-1.919,0 -3.839,-0.7320000000000004 -5.303,-2.196 l-26.038,-26.037 c-2.93,-2.9290000000000003 -2.93,-7.678 -0.0010000000000000009,-10.606 c2.93,-2.93 7.679,-2.9290000000000003 10.606,-0.0010000000000000009 l26.038,26.037 c2.93,2.9290000000000003 2.93,7.678 0.0010000000000000009,10.606 C617.069,299.814 615.149,300.546 613.23,300.546 z" id="svg_43"/>
</g><g id="svg_44" class="">
	
		<ellipse transform="matrix(0.7071,-0.7071,0.7071,0.7071,-66.6344,239.1409) " style="fill:#F2937E;" cx="482.5112182807086" cy="421.86186279331406" rx="20.549999237060547" ry="25.80500030517578" id="svg_45"/>
	
		<ellipse transform="matrix(-0.7071,0.7071,-0.7071,-0.7071,816.1179,259.8004) " style="fill:#F2937E;" cx="127.09275510796323" cy="77.06713806117813" rx="20.549999237060547" ry="25.80500030517578" id="svg_46"/>
</g><g id="svg_47" class="">
	<path style="fill:#495059;" d="M593.06,189.651 c-1.919,0 -3.839,-0.7320000000000004 -5.304,-2.196 c-2.9290000000000003,-2.93 -2.9290000000000003,-7.678 0,-10.607 l7.832,-7.832 c2.93,-2.928 7.678,-2.928 10.607,0 c2.9290000000000003,2.93 2.9290000000000003,7.678 0,10.607 l-7.832,7.832 C596.899,188.91899999999998 594.979,189.651 593.06,189.651 z" id="svg_48"/>
	<path style="fill:#495059;" d="M620.25,247.767 L620.25,247.767 c-7.301,-7.301 -7.301,-19.139 0,-26.44 l9.611,-9.611 c1.9929999999999999,-1.9929999999999999 5.225,-1.9929999999999999 7.218,0 l19.223,19.223 c1.9929999999999999,1.9929999999999999 1.9929999999999999,5.225 0,7.218 l-9.611,9.611 C639.389,255.06799999999998 627.5509999999999,255.06799999999998 620.25,247.767 z" id="svg_49"/>
	<path style="fill:#495059;" d="M685.865,282.456 c-1.919,0 -3.839,-0.7320000000000004 -5.304,-2.196 c-2.9290000000000003,-2.93 -2.9290000000000003,-7.678 0,-10.607 l7.832,-7.832 c2.93,-2.928 7.678,-2.928 10.607,0 c2.9290000000000003,2.93 2.9290000000000003,7.678 0,10.607 l-7.832,7.832 C689.704,281.724 687.784,282.456 685.865,282.456 z" id="svg_50"/>
</g><g id="svg_51" class="">
</g><g id="svg_52" class="">
</g><g id="svg_53" class="">
</g><g id="svg_54" class="">
</g><g id="svg_55" class="">
</g><g id="svg_56" class="">
</g><g id="svg_57" class="">
</g><g id="svg_58" class="">
</g><g id="svg_59" class="">
</g><g id="svg_60" class="">
</g><g id="svg_61" class="">
</g><g id="svg_62" class="">
</g><g id="svg_63" class="">
</g><g id="svg_64" class="">
</g><g id="svg_65" class="">
</g><path fill="#000000" fill-opacity="1" stroke="#000000" stroke-opacity="1" stroke-width="1" stroke-dasharray="none" stroke-linejoin="miter" stroke-linecap="butt" stroke-dashoffset="" fill-rule="nonzero" opacity="0.67" marker-start="" marker-mid="" marker-end="" d="M201.75,392.625 C201.75,385.3736187845303 207.39986193180084,379.5 214.3750001192093,379.5 C221.35013830661774,379.5 227.00000023841858,385.3736187845303 227.00000023841858,392.625 C227.00000023841858,399.8763812154697 221.35013830661774,405.75 214.3750001192093,405.75 C207.39986193180084,405.75 201.75,399.8763812154697 201.75,392.625 z" id="svg_78" class=""/><path fill="#000000" fill-opacity="1" stroke="#000000" stroke-opacity="1" stroke-width="1" stroke-dasharray="none" stroke-linejoin="miter" stroke-linecap="butt" stroke-dashoffset="" fill-rule="nonzero" opacity="0.67" marker-start="" marker-mid="" marker-end="" d="M251.25,398.1250000298023 C251.25,390.73549725090606 257.0117403314917,384.75 264.125,384.75 C271.2382596685083,384.75 277,390.73549725090606 277,398.1250000298023 C277,405.5145028086986 271.2382596685083,411.50000005960464 264.125,411.50000005960464 C257.0117403314917,411.50000005960464 251.25,405.5145028086986 251.25,398.1250000298023 z" id="svg_80" class=""/><path fill="#000000" fill-opacity="1" stroke="#000000" stroke-opacity="1" stroke-width="1" stroke-dasharray="none" stroke-linejoin="miter" stroke-linecap="butt" stroke-dashoffset="" fill-rule="nonzero" opacity="0.67" marker-start="" marker-mid="" marker-end="" d="M96.75,402.25 C96.75,396.4488950276243 101.67265193370167,391.75 107.75,391.75 C113.82734806629833,391.75 118.75,396.4488950276243 118.75,402.25 C118.75,408.0511049723757 113.82734806629833,412.75 107.75,412.75 C101.67265193370167,412.75 96.75,408.0511049723757 96.75,402.25 z" id="svg_82" class=""/><path fill="#000000" fill-opacity="1" stroke="#000000" stroke-opacity="1" stroke-width="1" stroke-dasharray="none" stroke-linejoin="miter" stroke-linecap="butt" stroke-dashoffset="" fill-rule="nonzero" opacity="0.67" marker-start="" marker-mid="" marker-end="" d="M150.25,396.75 C150.25,390.53453038674024 155.22859137361218,385.5 161.37500047683716,385.5 C167.52140958006214,385.5 172.50000095367432,390.53453038674024 172.50000095367432,396.75 C172.50000095367432,402.96546961325976 167.52140958006214,408 161.37500047683716,408 C155.22859137361218,408 150.25,402.96546961325976 150.25,396.75 z" id="svg_84" class=""/><path fill="#000000" fill-opacity="1" stroke="#000000" stroke-opacity="1" stroke-width="1" stroke-dasharray="none" stroke-linejoin="miter" stroke-linecap="butt" stroke-dashoffset="" fill-rule="nonzero" opacity="0.67" marker-start="" marker-mid="" marker-end="" d="M50.25,405.5 C50.25,399.28453038674024 55.228591373612176,394.25 61.37500047683716,394.25 C67.52140958006214,394.25 72.50000095367432,399.28453038674024 72.50000095367432,405.5 C72.50000095367432,411.71546961325976 67.52140958006214,416.75 61.37500047683716,416.75 C55.228591373612176,416.75 50.25,411.71546961325976 50.25,405.5 z" class="" id="svg_74"/><path fill="#000000" fill-opacity="1" stroke="#000000" stroke-opacity="1" stroke-width="1" stroke-dasharray="none" stroke-linejoin="miter" stroke-linecap="butt" stroke-dashoffset="" fill-rule="nonzero" opacity="0.67" marker-start="" marker-mid="" marker-end="" d="M3,402.25 C3,396.4488950276243 7.9226519337016725,391.75 14,391.75 C20.077348066298327,391.75 25,396.4488950276243 25,402.25 C25,408.0511049723757 20.077348066298327,412.75 14,412.75 C7.9226519337016725,412.75 3,408.0511049723757 3,402.25 z" class="" id="svg_75"/></g></svg>