<?xml version="1.0" encoding="UTF-8"?>
<svg style="" version="1.1" viewBox="0 0 828.5 506" xml:space="preserve" xmlns="http://www.w3.org/2000/svg"><rect class="" width="100%" height="100%" fill="none" style=""/>
<g class="currentLayer" style=""><title>Layer 1</title><path class="" d="m806.11 254.23c0 82.579-31.551 149.73-103.18 187.29-40.809 21.4-86.507 51.945-136.05 51.945-82.339 0-151.57-32.514-186.51-104.93-20.121-41.697-52.727-84.524-52.727-134.31 0-56.787 28.374-112.92 65.831-149.98 48.346-47.822 98.066-89.263 173.41-89.263 59.444 0 108.88 28.413 155.67 57.565 57.917 36.092 83.571 108.99 83.571 181.67z" fill="#FFF0C0"/><path class="" d="m566.88 493.47c49.548 0 95.245-30.545 136.05-51.945 3.214-1.685 6.343-3.432 9.396-5.236-242.84 75.031-298.8-291.63-230.29-401.12-32.967 16.619-60.991 41.814-88.566 69.089-37.457 37.051-65.831 93.188-65.831 149.98 0 49.788 32.606 92.615 52.728 134.31 34.942 72.413 104.17 104.93 186.51 104.93z" enable-background="new" fill="#C97B00" opacity=".2"/><g class="" fill="#DDAF89">
	<path d="m695.21 204.3c-3.888 0-7.176-2.999-7.471-6.939-1.803-24.018 9.268-52.776 30.373-78.904 20.401-25.255 45.28-41.8 66.551-44.258 4.12-0.477 7.836 2.474 8.311 6.589 0.476 4.115-2.475 7.836-6.589 8.312-17.196 1.987-38.886 16.848-56.604 38.783-18.457 22.849-28.582 48.402-27.085 68.355 0.311 4.131-2.787 7.73-6.917 8.04-0.192 0.015-0.381 0.022-0.569 0.022z"/>
	<path d="m721.34 133.99c-3.36 1e-3 -6.376-2.269-7.246-5.597-2.074-4.339-19.486-22.486-38.667-28.484-3.953-1.236-6.156-5.443-4.92-9.396 1.236-3.952 5.441-6.155 9.397-4.92 22.554 7.053 46.898 29.756 48.804 39.45 0.799 4.064-1.849 8.007-5.913 8.806-0.49 0.095-0.976 0.141-1.455 0.141zm-7.186-5.463h0.01-0.01zm-0.166-0.591c1e-3 2e-3 1e-3 4e-3 1e-3 6e-3 -1e-13 -3e-3 -1e-13 -4e-3 -1e-3 -6e-3z"/>
</g><g class="" fill="#A28577">
	<path d="m513.73 323.4c-1.956 0-3.91-0.761-5.381-2.274-11.234-11.566-29.453-55.847-17.389-85.457 4.753-11.668 6.631-34.246 4.784-57.52-1.903-23.979-7.38-43.646-14.292-51.327-2.771-3.079-2.521-7.821 0.557-10.592s7.82-2.523 10.592 0.557c13.186 14.65 17.048 46.963 18.097 60.176 2.049 25.82-0.191 50.484-5.847 64.366-9.354 22.959 6.792 61.659 14.258 69.346 2.886 2.972 2.816 7.72-0.154 10.605-1.457 1.416-3.342 2.12-5.225 2.12z"/>
	<path d="m497.91 246c-3.291 0-6.31-2.183-7.227-5.509-9.678-35.11-33.404-45.322-49.104-52.079-3.328-1.433-6.203-2.67-8.618-4.012-3.621-2.011-4.925-6.577-2.913-10.198 2.011-3.62 6.574-4.928 10.198-2.913 1.754 0.974 4.307 2.073 7.263 3.345 16.092 6.926 46.044 19.816 57.636 61.871 1.101 3.993-1.244 8.123-5.237 9.224-0.668 0.183-1.339 0.271-1.998 0.271z"/>
	<path d="m562.2 156.84h-0.133c-4.142-8e-3 -7.493-3.372-7.485-7.515 8e-3 -4.137 3.364-7.485 7.5-7.485 0.036-3e-3 0.078 0 0.116 0 15.823 0 29.195-7.179 43.354-14.778 13.985-7.508 28.446-15.271 45.812-16.093 4.188-0.2 7.65 3 7.847 7.136 0.196 4.138-2.999 7.651-7.136 7.847-13.974 0.662-26.338 7.3-39.429 14.326-15.17 8.142-30.855 16.562-50.446 16.562z"/>
	<path d="m616.99 136.36c-13.735 0-26.724-5.953-37.652-17.28-17.116-17.74-25.317-44.063-24.734-52.614 0.281-4.132 3.872-7.24 7.993-6.972 4.128 0.281 7.247 3.853 6.973 7.981-0.145 3.921 6.287 26.828 21.147 41.787 8.279 8.335 17.475 12.399 27.332 12.081 4.1-0.118 7.605 3.113 7.738 7.254 0.134 4.14-3.114 7.605-7.254 7.738-0.515 0.016-1.029 0.025-1.543 0.025z"/>
	<path d="m426.16 148.1c-1.295 0-2.606-0.335-3.802-1.04-24.353-14.357-75.479-12.451-93.102-0.288-3.407 2.354-8.079 1.497-10.433-1.913-2.352-3.409-1.496-8.08 1.913-10.433 22.07-15.231 79.01-18.108 109.24-0.288 3.568 2.104 4.756 6.701 2.652 10.27-1.397 2.372-3.899 3.692-6.466 3.692z"/>
</g><g class="" fill="#DDAF89">
	<path d="m513.74 100.26c-0.676 0-1.362-0.092-2.045-0.285-3.986-1.128-6.304-5.272-5.176-9.258 2.585-9.138 0.689-17.746-5.795-26.318-14.269-18.865-45.22-29.665-51.426-29.665-4.142 0-7.5-3.357-7.5-7.5s3.357-7.5 7.5-7.5c10.578 0 45.891 12.48 63.389 35.616 9.249 12.228 12.107 25.869 8.266 39.449-0.935 3.304-3.942 5.461-7.213 5.461z"/>
	<path d="m513.23 79.337c-0.895 0-1.807-0.161-2.692-0.503-3.866-1.488-5.793-5.828-4.305-9.693 1.033-2.685 3.332-5.469 8.895-12.065 9.151-10.851 30.582-36.263 25.266-47.794-1.734-3.762-0.092-8.217 3.67-9.951 3.765-1.733 8.218-0.09 9.951 3.67 9.311 20.192-13.682 47.456-27.42 63.746-2.564 3.041-5.743 6.811-6.471 8.049-1.21 2.821-3.972 4.541-6.894 4.541zm7.001-4.808c-0.02 0.051-0.039 0.102-0.06 0.152 0.023-0.053 0.043-0.105 0.06-0.152z"/>
</g><path class="" d="m623.31 77.25c-2.016 0-4.024-0.808-5.503-2.401-2.815-3.038-2.635-7.784 0.402-10.6l1.883-1.748c18.5-17.199 46.453-43.193 80.873-30.553 3.889 1.428 5.883 5.737 4.455 9.625-1.427 3.888-5.739 5.883-9.625 4.455-25.774-9.465-47.796 11.009-65.489 27.458l-1.9 1.765c-1.442 1.338-3.271 1.999-5.096 1.999z" fill="#A28577"/><g class="" fill="#DDAF89">
	<path d="m325.01 339.24c-0.091 0-0.183-2e-3 -0.274-5e-3 -4.14-0.149-7.375-3.625-7.226-7.765 2.98-82.834 36.439-103.15 71.863-124.66 2.702-1.641 5.432-3.299 8.178-5.002 3.521-2.183 8.144-1.1 10.327 2.419 2.184 3.521 1.101 8.144-2.419 10.327-2.788 1.73-5.558 3.411-8.3 5.077-34.622 21.025-61.97 37.631-64.659 112.38-0.146 4.049-3.473 7.231-7.49 7.231z"/>
	<path d="m389.36 323.05c-4.143 0-7.5-3.357-7.5-7.5 0-17.323-22.546-40.278-33.381-51.31-2.311-2.354-4.138-4.212-5.469-5.706-1.446-1.62-5.845-6.553-2.168-11.811 2.372-3.395 7.051-4.223 10.443-1.85 1.266 0.885 2.175 2.09 2.694 3.429 1.028 1.18 3.224 3.415 5.2 5.428 13.168 13.407 37.68 38.364 37.68 61.821 1e-3 4.142-3.356 7.499-7.499 7.499zm-36.218-67.743c-2e-3 3e-3 -4e-3 6e-3 -7e-3 9e-3 3e-3 -3e-3 5e-3 -6e-3 7e-3 -9e-3zm6e-3 -9e-3c-1e-3 2e-3 -2e-3 3e-3 -3e-3 5e-3 1e-3 -2e-3 2e-3 -3e-3 3e-3 -5e-3zm6e-3 -9e-3c-1e-3 1e-3 -1e-3 3e-3 -2e-3 4e-3 1e-3 -1e-3 1e-3 -3e-3 2e-3 -4e-3z"/>
</g><g class="" fill="#A28577">
	<path d="m381.44 449.24c-2.657 0-5.232-1.415-6.594-3.912-7.461-13.678 0.307-61.524 21.088-84.517 2.778-3.072 7.521-3.311 10.594-0.535 3.072 2.778 3.313 7.521 0.535 10.594-7.589 8.396-13.968 22.491-17.501 38.672-3.431 15.709-2.699 26.384-1.545 28.608 1.983 3.637 0.642 8.189-2.994 10.173-1.14 0.622-2.37 0.917-3.583 0.917z"/>
	<path d="m530.95 406.38c-1.075 0-2.167-0.232-3.203-0.723-21.908-10.369-33.84-24.806-44.367-37.544-14.275-17.273-25.552-30.918-57.737-33.186-4.132-0.291-7.245-3.877-6.954-8.009s3.879-7.245 8.009-6.954c38.598 2.72 53.67 20.957 68.245 38.593 9.996 12.095 20.331 24.602 39.221 33.541 3.744 1.772 5.343 6.244 3.571 9.987-1.282 2.709-3.977 4.295-6.785 4.295z"/>
	<path d="m561.21 373.34c-2.153 0-4.29-0.922-5.773-2.708-8.782-10.575-28.819-5.324-44.92-1.106-7.367 1.931-13.73 3.598-18.972 3.809-4.146 0.188-7.629-3.055-7.795-7.193-0.166-4.139 3.055-7.629 7.193-7.795 3.615-0.145 9.52-1.692 15.771-3.33 19.15-5.019 45.377-11.889 60.261 6.032 2.646 3.187 2.209 7.915-0.978 10.562-1.4 1.161-3.099 1.729-4.787 1.729z"/>
</g><g class="" fill="#DDAF89">
	<path d="m467.25 505.86c-1.268 0-2.551-0.321-3.729-0.997-3.592-2.063-4.831-6.647-2.769-10.239 12.709-22.128 13.781-45.601 3.189-69.767-8.64-19.71-22.269-32.889-24.594-34.667-3.29-2.517-3.918-7.224-1.402-10.514s7.223-3.917 10.514-1.402c5.615 4.294 20.146 19.858 29.221 40.562 12.431 28.359 11.075 57.149-3.92 83.259-1.386 2.414-3.913 3.765-6.51 3.765z"/>
	<path d="m480.97 453.75c-2.107 0-4.04-0.288-5.846-0.969-3.876-1.463-5.832-5.79-4.37-9.665 1.449-3.84 5.711-5.791 9.556-4.41 1.923 0.369 8.319-1.183 13.006-2.318 12.432-3.012 29.459-7.138 45.029-1.737 3.914 1.357 5.986 5.63 4.629 9.543-1.357 3.914-5.626 5.986-9.543 4.629-11.409-3.956-25.366-0.573-36.582 2.144-6.338 1.535-11.488 2.783-15.879 2.783zm-0.552-15.005c0 1e-3 1e-3 1e-3 2e-3 1e-3 -1e-3 -2.0001e-14 -2e-3 -2.0001e-14 -2e-3 -1e-3z"/>
</g><g class="" fill="#A28577">
	<path d="m575.32 442.67c-2.484 0-4.915-1.233-6.343-3.488-2.217-3.499-1.177-8.133 2.323-10.349 8.864-5.615 20.829-7.364 34.682-9.39 15.581-2.278 34.971-5.114 55.649-14.435 3.774-1.699 8.217-0.021 9.92 3.756 1.702 3.776 0.021 8.218-3.756 9.92-22.594 10.183-43.137 13.187-59.643 15.601-12.66 1.852-22.659 3.314-28.827 7.22-1.243 0.789-2.633 1.165-4.005 1.165z"/>
	<path d="m699.08 459.19c-12.062 0-26.85-4.337-44.139-12.963-16.096-8.031-28.455-16.858-28.973-17.23-3.366-2.415-4.137-7.1-1.722-10.466 2.415-3.367 7.103-4.136 10.466-1.722 12.807 9.176 50.501 31.847 70.913 26.638 4.01-1.021 8.098 1.4 9.12 5.415 1.023 4.014-1.401 8.097-5.415 9.12-3.158 0.805-6.579 1.208-10.25 1.208z"/>
</g><g class="" fill="#DDAF89">
	<path d="m620.01 384.19c-1.433 0-2.88-0.409-4.159-1.265-3.444-2.301-4.371-6.959-2.07-10.402 22.631-33.873 73.056-43.186 119.4-47.827 4.112-0.415 7.796 2.594 8.21 6.716 0.412 4.121-2.594 7.797-6.716 8.21-42.857 4.293-89.253 12.549-108.42 41.233-1.447 2.165-3.823 3.335-6.244 3.335z"/>
	<path d="m746.12 396.48c-7.239 0-14.34-1.12-21.333-3.354-24.104-7.696-42.53-27.358-57.376-45.577-2.616-3.211-2.134-7.935 1.077-10.552 3.212-2.617 7.935-2.134 10.552 1.077 13.452 16.509 29.948 34.262 50.31 40.763 20.926 6.682 43.83 0.462 70.026-19.011 3.324-2.471 8.021-1.779 10.494 1.545 2.471 3.324 1.779 8.022-1.545 10.494-22.145 16.461-42.677 24.615-62.205 24.615z"/>
</g><g class="" fill="#A28577">
	<path d="m767.38 289.86c-0.563 0-1.133-0.063-1.704-0.196-4.034-0.938-6.546-4.968-5.608-9.003 3.901-16.794 14.312-30.659 24.378-44.067 11.664-15.535 22.681-30.209 20.491-46.48-0.553-4.104 2.327-7.881 6.433-8.433 4.1-0.556 7.88 2.327 8.433 6.433 3.01 22.362-10.396 40.218-23.36 57.486-9.133 12.165-18.577 24.744-21.763 38.456-0.806 3.464-3.891 5.804-7.3 5.804z"/>
	<path d="m783.33 258.23c-3.669 0-6.777-2.66-7.387-6.229-0.878-1.79-4.609-6.461-7.634-10.246-13.727-17.181-36.702-45.936-26.46-73.003 1.465-3.875 5.795-5.829 9.669-4.36 3.874 1.466 5.826 5.795 4.36 9.669-7.217 19.073 12.418 43.648 24.149 58.331 7.028 8.797 10.557 13.213 10.798 17.958 0.211 4.137-2.973 7.66-7.109 7.871-0.129 6e-3 -0.258 9e-3 -0.386 9e-3zm-7.485-7.12v8e-3 -8e-3z"/>
	<path d="m770.32 336.7c-1.398 0-2.811-0.39-4.071-1.205-3.477-2.25-4.469-6.9-2.219-10.378 6.476-10.01 46.979-35.293 54.163-39.529 3.568-2.103 8.166-0.916 10.271 2.651 2.104 3.568 0.917 8.166-2.651 10.271-21.116 12.451-46.424 30.725-49.197 34.769-1.435 2.216-3.84 3.421-6.296 3.421z"/>
</g><path class="" d="m445.51 105.41c-0.367 0-0.737-0.026-1.111-0.082-6.696-0.994-15.698-5.248-22.934-10.837-9.922-7.664-15.689-16.923-16.676-26.775-0.413-4.122 2.594-7.798 6.715-8.211 4.123-0.41 7.798 2.593 8.211 6.715 1.283 12.809 19.304 23.146 26.887 24.271 4.097 0.608 6.926 4.423 6.317 8.521-0.553 3.722-3.755 6.398-7.409 6.398z" fill="#DDAF89"/><path class="" d="m419.07 281.99c-0.928 0-1.87-0.173-2.784-0.539-3.846-1.538-5.716-5.903-4.177-9.749 2.777-6.942 20.958-24.781 31.229-27.872 3.964-1.193 8.148 1.054 9.343 5.02 1.193 3.967-1.054 8.149-5.02 9.343-5.351 1.61-19.559 15.103-21.667 19.184-1.197 2.871-3.984 4.613-6.924 4.613zm6.965-4.716c-6e-3 0.016-0.012 0.03-0.019 0.046 7e-3 -0.015 0.013-0.031 0.019-0.046z" fill="#A28577"/><g class="" fill="#DDAF89">
	<path d="m373.59 189.93c-1.97 0-3.937-0.771-5.409-2.304-2.87-2.987-2.774-7.735 0.212-10.604 8.407-8.077 22.51-10.699 31.508-9.068 4.076 0.739 6.781 4.643 6.042 8.718-0.739 4.076-4.65 6.775-8.718 6.042-5.213-0.945-14.069 0.928-18.439 5.125-1.454 1.396-3.326 2.091-5.196 2.091z"/>
	<path d="m594.74 330.95c-1.766 0-3.538-0.62-4.965-1.881-17.699-15.65-23.274-32.207-27.753-45.51-4.682-13.902-8.064-23.947-22.589-30.923-3.733-1.793-5.307-6.273-3.514-10.008 1.793-3.733 6.273-5.307 10.008-3.514 20.229 9.714 25.354 24.937 30.31 39.658 4.314 12.813 8.774 26.063 23.473 39.058 3.103 2.744 3.395 7.484 0.651 10.587-1.481 1.678-3.547 2.533-5.621 2.533z"/>
	<path d="m582.02 289.59c-7.04 0-12.982-1.017-16.806-3.029-3.665-1.929-5.073-6.465-3.144-10.13 1.929-3.664 6.464-5.073 10.13-3.144 2.386 1.256 12.591 2.372 26.435-0.595 4.047-0.867 8.036 1.712 8.905 5.763 0.867 4.051-1.713 8.037-5.763 8.905-6.96 1.492-13.758 2.23-19.757 2.23z"/>
	<path d="m728.73 268.42c-0.354 0-0.711-0.025-1.07-0.076-4.101-0.586-6.95-4.385-6.364-8.485 0.879-6.152-7.598-12.724-10.259-13.973-3.427-0.595-6.084-3.525-6.205-7.139-0.138-4.141 3.105-7.608 7.245-7.747 0.079-2e-3 0.158-4e-3 0.237-4e-3 5.393 0 12.738 5.999 16.411 10.094 5.871 6.546 8.438 13.77 7.42 20.89-0.535 3.741-3.743 6.44-7.415 6.44zm-16.151-22.428h-7e-3 7e-3zm-1.823-0.226z"/>
	<path d="m613.23 300.55c-1.919 0-3.839-0.732-5.303-2.196l-26.038-26.037c-2.93-2.929-2.93-7.678-1e-3 -10.606 2.93-2.93 7.679-2.929 10.606-1e-3l26.038 26.037c2.93 2.929 2.93 7.678 1e-3 10.606-1.464 1.465-3.384 2.197-5.303 2.197z"/>
</g><g class="" fill="#F2937E">
		<ellipse transform="matrix(.7071 -.7071 .7071 .7071 -66.634 239.14)" cx="482.51" cy="421.86" rx="20.55" ry="25.805"/>
		<ellipse transform="matrix(-.7071 .7071 -.7071 -.7071 816.12 259.8)" cx="127.09" cy="77.067" rx="20.55" ry="25.805"/>
</g><g class="" fill="#495059">
	<path d="m593.06 189.65c-1.919 0-3.839-0.732-5.304-2.196-2.929-2.93-2.929-7.678 0-10.607l7.832-7.832c2.93-2.928 7.678-2.928 10.607 0 2.929 2.93 2.929 7.678 0 10.607l-7.832 7.832c-1.464 1.464-3.384 2.196-5.303 2.196z"/>
	<path d="m620.25 247.77c-7.301-7.301-7.301-19.139 0-26.44l9.611-9.611c1.993-1.993 5.225-1.993 7.218 0l19.223 19.223c1.993 1.993 1.993 5.225 0 7.218l-9.611 9.611c-7.302 7.3-19.14 7.3-26.441-1e-3z"/>
	<path d="m685.86 282.46c-1.919 0-3.839-0.732-5.304-2.196-2.929-2.93-2.929-7.678 0-10.607l7.832-7.832c2.93-2.928 7.678-2.928 10.607 0 2.929 2.93 2.929 7.678 0 10.607l-7.832 7.832c-1.464 1.464-3.384 2.196-5.303 2.196z"/>
</g><path class="" d="m201.75 392.62c0-7.2514 5.6499-13.125 12.625-13.125 6.9751 0 12.625 5.8736 12.625 13.125s-5.6499 13.125-12.625 13.125c-6.9751 0-12.625-5.8736-12.625-13.125z" marker-end="" marker-mid="" marker-start="" opacity=".67" stroke="#000" stroke-dashoffset=""/><path class="" d="m251.25 398.13c0-7.3895 5.7617-13.375 12.875-13.375s12.875 5.9855 12.875 13.375c0 7.3895-5.7617 13.375-12.875 13.375s-12.875-5.9855-12.875-13.375z" marker-end="" marker-mid="" marker-start="" opacity=".67" stroke="#000" stroke-dashoffset=""/><path class="" d="m96.75 402.25c0-5.8011 4.9227-10.5 11-10.5s11 4.6989 11 10.5-4.9227 10.5-11 10.5-11-4.6989-11-10.5z" marker-end="" marker-mid="" marker-start="" opacity=".67" stroke="#000" stroke-dashoffset=""/><path class="" d="m150.25 396.75c0-6.2155 4.9786-11.25 11.125-11.25s11.125 5.0345 11.125 11.25-4.9786 11.25-11.125 11.25-11.125-5.0345-11.125-11.25z" marker-end="" marker-mid="" marker-start="" opacity=".67" stroke="#000" stroke-dashoffset=""/><path class="" d="m50.25 405.5c0-6.2155 4.9786-11.25 11.125-11.25 6.1464 0 11.125 5.0345 11.125 11.25s-4.9786 11.25-11.125 11.25c-6.1464 0-11.125-5.0345-11.125-11.25z" marker-end="" marker-mid="" marker-start="" opacity=".67" stroke="#000" stroke-dashoffset=""/><path class="" d="m3 402.25c0-5.8011 4.9227-10.5 11-10.5 6.0773 0 11 4.6989 11 10.5s-4.9227 10.5-11 10.5c-6.0773 0-11-4.6989-11-10.5z" marker-end="" marker-mid="" marker-start="" opacity=".67" stroke="#000" stroke-dashoffset=""/></g></svg>
